<svg xmlns="http://www.w3.org/2000/svg">
  <symbol id="esports" viewBox="0 0 24 24">
    <circle cx="12" cy="12" r="7"/><path d="M12 2v4M12 18v4M2 12h4M18 12h4"/><circle cx="12" cy="12" r="2"/>
  </symbol>
  <symbol id="monitor" viewBox="0 0 24 24">
    <rect x="3" y="4" width="18" height="12" rx="2"/><path d="M8 21h8M12 16v5"/>
  </symbol>
  <symbol id="gamepad" viewBox="0 0 24 24">
    <path d="M8.5 7h7a5 5 0 0 1 4.8 3.6l1.3 4.7a2.8 2.8 0 0 1-4.6 2.8l-2.1-1.8H9.1L7 18.1a2.8 2.8 0 0 1-4.6-2.8l1.3-4.7A5 5 0 0 1 8.5 7Z"/><path d="M7 10v4M5 12h4M16.5 11.5h.01M18.5 13.5h.01"/>
  </symbol>
  <symbol id="moon" viewBox="0 0 24 24">
    <path d="M20.5 14.2A8.5 8.5 0 0 1 9.8 3.5 8.5 8.5 0 1 0 20.5 14.2Z"/>
  </symbol>
  <symbol id="parking" viewBox="0 0 24 24">
    <rect x="4" y="3" width="16" height="18" rx="3"/><path d="M9 17V7h4a3.5 3.5 0 0 1 0 7H9M9 14h4"/>
  </symbol>
  <symbol id="drinks" viewBox="0 0 24 24">
    <path d="M8 3h8M9 3l1 4h4l1-4M7 7h10l-1 14H8L7 7Z"/><path d="M10 11h4"/>
  </symbol>
  <symbol id="snacks" viewBox="0 0 24 24">
    <path d="M7 3h10l2 4-2 14H7L5 7l2-4Z"/><path d="M5 7h14M9 11c1.2 1 4.8 1 6 0M10 15h4"/>
  </symbol>
  <symbol id="hot-food" viewBox="0 0 24 24">
    <rect x="3" y="5" width="18" height="15" rx="2"/><path d="M3 9h18M7 7h.01M10 7h.01M8 15c0-1.5 1.2-1.8 1.2-3.2M12 16c0-1.8 1.4-2.1 1.4-4"/>
  </symbol>
</svg>
